# xmcd CD database file
#
# Track frame offsets:
#	150
#	16120
#	37907
#
# Disc length: 774 seconds
#
# Revision: 0
# Processed by: cddbd v1.5PL3 Copyright (c) Steve Scherf et al.
# Submitted via: CDex 1.50
#
DISCID=13030403
DTITLE=Shiva - Fly away [CD-Single)
DYEAR=1998
DGENRE=Jazz
TTITLE0=Shiva feat. Magdalena - Fly away (Radio edit)
TTITLE1=Shiva feat. Magdalena - Fly away (Album version)
TTITLE2=Oazee
EXTD=YEAR: 1998
EXTT0=
EXTT1=
EXTT2=
PLAYORDER=
